<?xml version="1.0" encoding="utf-8"?>
<!-- Generator: Adobe Illustrator 24.3.0, SVG Export Plug-In . SVG Version: 6.00 Build 0)  -->
<svg version="1.1" id="Layer_1" xmlns="http://www.w3.org/2000/svg" xmlns:xlink="http://www.w3.org/1999/xlink" x="0px" y="0px"
	 viewBox="0 0 128 50" style="enable-background:new 0 0 128 50;" xml:space="preserve">
<style type="text/css">
	.st0{fill:#000;}
</style>
<g>
	<g>
		<path class="st0" d="M63.6,21.2c-1.7,0-3.1,1.3-3.1,3.1c0,1.8,1.4,3.1,3.1,3.1c1.7,0,3.1-1.4,3.1-3.1
			C66.7,22.6,65.3,21.2,63.6,21.2z M70.7,10.1L0.8,0.9l5.8,41.5L37,41l0.9,6.3l-1.5-0.7H22.3v0.5l16.6,2l18.2-1.8l-1.3-7.2l20.9-1.5
			L70.7,10.1z M18.6,18.2h-3.4v11.1l-2.9,0.2V18.2H8.4l0.7-2.6h9.5V18.2z M19.7,15.6l3-0.4l3.2,8.3l3.1-8.3l2.9,0.4l-6.1,14.8
			L19.7,15.6z M37,29.7c-3.5,0-5.6-2.6-5.6-5.4c0-2.9,2.1-5.5,5.5-5.5c1.1,0,2.5,0.3,3.6,1.3L39.2,22c-0.9-0.7-1.6-0.8-2.2-0.8
			c-1.5,0-3,1-3,3.1c0,2,1.4,3.1,3.1,3.1c0.9,0,1.7-0.4,2.1-0.8l1.4,1.9C39.5,29.3,38.4,29.7,37,29.7z M45.1,29.3l-2.6,0.2v-14
			l2.6-0.2V29.3z M56.1,29.3l-2.4,0.2V28c-0.7,1.2-1.8,1.7-2.9,1.7c-1.7,0-3.3-1.1-3.3-3.4v-7.1l2.6-0.2v6.8c0,1.2,0.7,1.6,1.4,1.6
			c0.9,0,2.1-0.5,2.1-2.5v-5.7l2.6-0.2V29.3z M63.7,29.7c-2.2,0-5.6-1-5.6-6.3v-7.9l2.6-0.2v5c0.4-0.5,1.4-1.4,3.1-1.4
			c3.3,0,5.5,2.5,5.5,5.5C69.3,27.4,66.8,29.7,63.7,29.7z M75.9,28.1l1.7,1.7l1.6-1.8l-1.7-1.7L75.9,28.1z M85.3,19.9
			c-2.8,0-5.1,2.2-5.1,4.9c0,2.7,2.3,4.9,5.1,4.9c2.8,0,5.1-2.2,5.1-4.9C90.3,22.1,88.1,19.9,85.3,19.9z M85.3,27.6
			c-1.5,0-2.8-1.3-2.8-2.8c0-1.5,1.3-2.8,2.8-2.8c1.5,0,2.8,1.3,2.8,2.8C88,26.3,86.8,27.6,85.3,27.6z M96.3,19.9
			c-1,0-2,0.4-2.6,1.5V20l-2.1,0.2v9.3l2.3-0.2v-5c0-1.7,1.1-2.2,1.8-2.2c0.7,0,1.3,0.4,1.3,1.5v6l2.3-0.2V23
			C99.3,20.9,97.8,19.9,96.3,19.9z M100.9,29.5l2.3-0.2V16.7l-2.3,0.2V29.5z M104.6,17.9l1.5,1.5l1.5-1.5l-1.5-1.5L104.6,17.9z
			 M104.9,29.5l2.3-0.2V20l-2.3,0.2V29.5z M113.6,19.9c-1,0-2,0.4-2.6,1.5V20l-2.1,0.2v9.3l2.3-0.2v-5c0-1.7,1.1-2.2,1.8-2.2
			c0.7,0,1.3,0.4,1.3,1.5v6l2.3-0.2V23C116.6,20.9,115.1,19.9,113.6,19.9z M122.9,27.6c-1.1,0-1.7-0.6-1.9-0.9l6.3-3.9
			c-0.5-0.8-1.8-2.9-4.6-2.9c-2.8,0-4.8,2.1-4.8,4.8c0,2.8,2.1,4.9,5.1,4.9c1.2,0,2.6-0.4,3.7-1.2l-1-1.9
			C124.8,27.2,123.8,27.6,122.9,27.6z M120.1,24.6c0-1.2,0.8-2.7,2.6-2.7c0.7,0,1.2,0.2,1.6,0.6l-4.2,2.5
			C120.2,24.9,120.1,24.8,120.1,24.6z"/>
	</g>
</g>
</svg>
